{
  "accessors": [
    {
      "bufferView": 2,
      "componentType": 5126,
      "count": 8852,
      "max": [33.803737640380859, 38.803745269775391, 71.799591064453125],
      "min": [-34.195354461669922, -38.803733825683594, 21.437843322753906],
      "type": "VEC3"
    },
    {
      "bufferView": 2,
      "byteOffset": 106224,
      "componentType": 5126,
      "count": 8852,
      "max": [0.99043792486190796, 1, 1],
      "min": [-0.98772090673446655, -1, -1],
      "type": "VEC3"
    },
    {
      "bufferView": 3,
      "componentType": 5126,
      "count": 8852,
      "max": [1, 1, 0.99709254503250122, 1],
      "min": [-1, -1, -0.98775243759155273, -1],
      "type": "VEC4"
    },
    {
      "bufferView": 1,
      "componentType": 5126,
      "count": 8852,
      "max": [3.2162494659423828, 3.4114766120910645],
      "min": [0.001999962143599987, 0.0020003484096378088],
      "type": "VEC2"
    },
    {
      "bufferView": 0,
      "componentType": 5125,
      "count": 14676,
      "max": [8851],
      "min": [0],
      "type": "SCALAR"
    },
    {
      "bufferView": 2,
      "byteOffset": 212448,
      "componentType": 5126,
      "count": 3408,
      "max": [36.699138641357422, 38.500007629394531, 37.420925140380859],
      "min": [-36.699165344238281, -38.500007629394531, -37.420955657958984],
      "type": "VEC3"
    },
    {
      "bufferView": 2,
      "byteOffset": 253344,
      "componentType": 5126,
      "count": 3408,
      "max": [1, 1, 1],
      "min": [-1, -1, -1],
      "type": "VEC3"
    },
    {
      "bufferView": 3,
      "byteOffset": 141632,
      "componentType": 5126,
      "count": 3408,
      "max": [1, 1, 0.8061097264289856, 1],
      "min": [-1, -1, -0.81565433740615845, 1],
      "type": "VEC4"
    },
    {
      "bufferView": 1,
      "byteOffset": 70816,
      "componentType": 5126,
      "count": 3408,
      "max": [0.99883395433425903, 0.99739420413970947],
      "min": [0.00049954652786254883, 0.0026057660579681396],
      "type": "VEC2"
    },
    {
      "bufferView": 0,
      "byteOffset": 58704,
      "componentType": 5125,
      "count": 14592,
      "max": [3407],
      "min": [0],
      "type": "SCALAR"
    },
    {
      "bufferView": 2,
      "byteOffset": 294240,
      "componentType": 5126,
      "count": 136,
      "max": [27.138889312744141, 39.132865905761719, 2.7000107765197754],
      "min": [-27.138889312744141, -39.132865905761719, -1.0891900274145883e-5],
      "type": "VEC3"
    },
    {
      "bufferView": 2,
      "byteOffset": 295872,
      "componentType": 5126,
      "count": 136,
      "max": [1, 0.72740083932876587, 0.76719421148300171],
      "min": [-1, -0.72740060091018677, -1],
      "type": "VEC3"
    },
    {
      "bufferView": 3,
      "byteOffset": 196160,
      "componentType": 5126,
      "count": 136,
      "max": [0, 0, 0, 1],
      "min": [0, 0, 0, 1],
      "type": "VEC4"
    },
    {
      "bufferView": 1,
      "byteOffset": 98080,
      "componentType": 5126,
      "count": 136,
      "max": [0.17375226318836212, 0],
      "min": [0.17375226318836212, 0],
      "type": "VEC2"
    },
    {
      "bufferView": 0,
      "byteOffset": 117072,
      "componentType": 5125,
      "count": 528,
      "max": [135],
      "min": [0],
      "type": "SCALAR"
    }
  ],
  "asset": {
    "extras": {
      "author": "Render - City (https://sketchfab.com/greshnovk)",
      "license": "CC-BY-4.0 (http://creativecommons.org/licenses/by/4.0/)",
      "source": "https://sketchfab.com/models/1c4d14c0e90b49018475c335aebc425b",
      "title": "Wassily DFA 24"
    },
    "generator": "Sketchfab-3.20.7",
    "version": "2.0"
  },
  "bufferViews": [
    {
      "buffer": 0,
      "byteLength": 119184,
      "byteOffset": 0,
      "name": "floatBufferViews",
      "target": 34963
    },
    {
      "buffer": 0,
      "byteLength": 99168,
      "byteOffset": 119184,
      "byteStride": 8,
      "name": "floatBufferViews",
      "target": 34962
    },
    {
      "buffer": 0,
      "byteLength": 297504,
      "byteOffset": 218352,
      "byteStride": 12,
      "name": "floatBufferViews",
      "target": 34962
    },
    {
      "buffer": 0,
      "byteLength": 198336,
      "byteOffset": 515856,
      "byteStride": 16,
      "name": "floatBufferViews",
      "target": 34962
    }
  ],
  "buffers": [
    {
      "byteLength": 714192,
      "uri": "scene.bin"
    }
  ],
  "images": [
    {
      "uri": "textures/material_metallicRoughness.png"
    },
    {
      "uri": "textures/metal_metallicRoughness.png"
    },
    {
      "uri": "textures/leather_baseColor.jpeg"
    },
    {
      "uri": "textures/leather_normal.png"
    }
  ],
  "materials": [
    {
      "doubleSided": true,
      "name": "leather",
      "normalTexture": {
        "index": 3,
        "scale": 0.65415396339999998,
        "texCoord": 0
      },
      "pbrMetallicRoughness": {
        "baseColorFactor": [1, 1, 1, 1],
        "baseColorTexture": {
          "index": 2,
          "texCoord": 0
        },
        "metallicFactor": 0.0443978659,
        "roughnessFactor": 0.032202743899999997
      }
    },
    {
      "doubleSided": true,
      "name": "metal",
      "pbrMetallicRoughness": {
        "baseColorFactor": [
          0.22618395465557181,
          0.22618395465557181,
          0.22618395465557181,
          1
        ],
        "metallicFactor": 1,
        "metallicRoughnessTexture": {
          "index": 1,
          "texCoord": 0
        },
        "roughnessFactor": 0.51391006100000003
      }
    },
    {
      "doubleSided": true,
      "name": "material",
      "pbrMetallicRoughness": {
        "baseColorFactor": [
          0.0034381442999999999,
          0.0034056783999999998,
          0.0034056783999999998,
          1
        ],
        "metallicFactor": 0,
        "metallicRoughnessTexture": {
          "index": 0,
          "texCoord": 0
        },
        "roughnessFactor": 0.98608993899999997
      }
    }
  ],
  "meshes": [
    {
      "name": "skin_leather_0",
      "primitives": [
        {
          "attributes": {
            "NORMAL": 1,
            "POSITION": 0,
            "TANGENT": 2,
            "TEXCOORD_0": 3
          },
          "indices": 4,
          "material": 0,
          "mode": 4
        }
      ]
    },
    {
      "name": "rama_metal_0",
      "primitives": [
        {
          "attributes": {
            "NORMAL": 6,
            "POSITION": 5,
            "TANGENT": 7,
            "TEXCOORD_0": 8
          },
          "indices": 9,
          "material": 1,
          "mode": 4
        }
      ]
    },
    {
      "name": "Nogi_Rub_0",
      "primitives": [
        {
          "attributes": {
            "NORMAL": 11,
            "POSITION": 10,
            "TANGENT": 12,
            "TEXCOORD_0": 13
          },
          "indices": 14,
          "material": 2,
          "mode": 4
        }
      ]
    }
  ],
  "nodes": [
    {
      "children": [1],
      "name": "RootNode (gltf orientation matrix)",
      "rotation": [-0.70710678118654746, -0, -0, 0.70710678118654757]
    },
    {
      "children": [2],
      "name": "RootNode (model correction matrix)"
    },
    {
      "children": [3],
      "matrix": [1, 0, 0, 0, 0, 0, 1, 0, 0, -1, 0, 0, 0, 0, 0, 1],
      "name": "Wassily_DFA_24.FBX"
    },
    {
      "children": [4, 7, 9],
      "name": "RootNode"
    },
    {
      "children": [5],
      "matrix": [
        0.99999999999998468,
        3.9704669402545328e-23,
        -1.7484555314694902e-7,
        0,
        -1.7484555314694902e-7,
        3.3306690738754696e-16,
        -0.99999999999998468,
        0,
        3.9704669402545328e-23,
        1,
        3.3306690738754696e-16,
        0,
        -25.238014221191406,
        46.618717193603516,
        6.5564179420471191,
        1
      ],
      "name": "skin"
    },
    {
      "children": [6],
      "matrix": [
        1,
        0,
        -0,
        0,
        0,
        1,
        0,
        0,
        0,
        0,
        1,
        0,
        0.19580841064453125,
        -5.7562820074963383e-6,
        -46.618717193603516,
        1
      ],
      "name": ""
    },
    {
      "mesh": 0,
      "name": "skin_leather_0"
    },
    {
      "children": [8],
      "matrix": [
        1,
        0,
        0,
        0,
        0,
        2.2204460492503131e-16,
        -1,
        0,
        0,
        1,
        2.2204460492503131e-16,
        0,
        -27.184955596923828,
        38.320941925048828,
        6.5564236640930176,
        1
      ],
      "name": "rama"
    },
    {
      "mesh": 1,
      "name": "rama_metal_0"
    },
    {
      "children": [10],
      "matrix": [
        1,
        0,
        0,
        0,
        0,
        2.2204460492503131e-16,
        -1,
        0,
        0,
        1,
        2.2204460492503131e-16,
        0,
        -25.042205810546875,
        0,
        6.5564236640930176,
        1
      ],
      "name": "Nogi"
    },
    {
      "mesh": 2,
      "name": "Nogi_Rub_0"
    }
  ],
  "samplers": [
    {
      "magFilter": 9729,
      "minFilter": 9987,
      "wrapS": 10497,
      "wrapT": 10497
    }
  ],
  "scene": 0,
  "scenes": [
    {
      "name": "OSG_Scene",
      "nodes": [0]
    }
  ],
  "textures": [
    {
      "sampler": 0,
      "source": 0
    },
    {
      "sampler": 0,
      "source": 1
    },
    {
      "sampler": 0,
      "source": 2
    },
    {
      "sampler": 0,
      "source": 3
    }
  ]
}
